HIERARCHY
ROOT Joint0
{
  OFFSET 0.0000 0.0000 1.0000
  CHANNELS 6 Xposition Yposition Zposition Zrotation Xrotation Yrotation
  JOINT Joint1
  {
    OFFSET 0.0811 -0.0899 -0.0114
    CHANNELS 3 Zrotation Xrotation Yrotation
    JOINT Joint4
    {
      OFFSET 0.0297 -0.3677 -0.0039
      CHANNELS 3 Zrotation Xrotation Yrotation
      JOINT Joint7
      {
        OFFSET -0.0120 -0.3841 -0.0490
        CHANNELS 3 Zrotation Xrotation Yrotation
        JOINT Joint10
        {
          OFFSET 0.0247 -0.0555 0.1226
          CHANNELS 3 Zrotation Xrotation Yrotation
          End Site
          {
            OFFSET 0.0247 -0.0555 0.1226
          }
        }
      }
    }
  }
  JOINT Joint2
  {
    OFFSET -0.0773 -0.0878 -0.0084
    CHANNELS 3 Zrotation Xrotation Yrotation
    JOINT Joint5
    {
      OFFSET -0.0344 -0.3716 -0.0062
      CHANNELS 3 Zrotation Xrotation Yrotation
      JOINT Joint8
      {
        OFFSET 0.0139 -0.3835 -0.0484
        CHANNELS 3 Zrotation Xrotation Yrotation
        JOINT Joint11
        {
          OFFSET -0.0293 -0.0469 0.1263
          CHANNELS 3 Zrotation Xrotation Yrotation
          End Site
          {
            OFFSET -0.0293 -0.0469 0.1263
          }
        }
      }
    }
  }
  JOINT Joint3
  {
    OFFSET -0.0027 0.1037 -0.0232
    CHANNELS 3 Zrotation Xrotation Yrotation
    JOINT Joint6
    {
      OFFSET 0.0030 0.1296 -0.0027
      CHANNELS 3 Zrotation Xrotation Yrotation
      JOINT Joint9
      {
        OFFSET 0.0015 0.0533 0.0332
        CHANNELS 3 Zrotation Xrotation Yrotation
        JOINT Joint12
        {
          OFFSET -0.0004 0.2283 -0.0600
          CHANNELS 3 Zrotation Xrotation Yrotation
          JOINT Joint15
          {
            OFFSET 0.0048 0.0641 0.0558
            CHANNELS 3 Zrotation Xrotation Yrotation
            End Site
            {
              OFFSET 0.0048 0.0641 0.0558
            }
          }
        }
        JOINT Joint13
        {
          OFFSET 0.0787 0.1275 -0.0430
          CHANNELS 3 Zrotation Xrotation Yrotation
          JOINT Joint16
          {
            OFFSET 0.0914 0.0355 -0.0086
            CHANNELS 3 Zrotation Xrotation Yrotation
            JOINT Joint18
            {
              OFFSET 0.2512 -0.0141 -0.0294
              CHANNELS 3 Zrotation Xrotation Yrotation
              JOINT Joint20
              {
                OFFSET 0.2431 0.0092 0.0027
                CHANNELS 3 Zrotation Xrotation Yrotation
                JOINT Joint22
                {
                  OFFSET 0.1053 -0.0108 0.0234
                  CHANNELS 3 Zrotation Xrotation Yrotation
                  JOINT Joint23
                  {
                    OFFSET 0.0332 0.0042 0.0030
                    CHANNELS 3 Zrotation Xrotation Yrotation
                    JOINT Joint24
                    {
                      OFFSET 0.0234 -0.0009 0.0005
                      CHANNELS 3 Zrotation Xrotation Yrotation
                      End Site
                      {
                        OFFSET 0.0234 -0.0009 0.0005
                      }
                    }
                  }
                }
                JOINT Joint25
                {
                  OFFSET 0.1126 -0.0078 -0.0002
                  CHANNELS 3 Zrotation Xrotation Yrotation
                  JOINT Joint26
                  {
                    OFFSET 0.0317 0.0021 -0.0047
                    CHANNELS 3 Zrotation Xrotation Yrotation
                    JOINT Joint27
                    {
                      OFFSET 0.0246 -0.0008 -0.0039
                      CHANNELS 3 Zrotation Xrotation Yrotation
                      End Site
                      {
                        OFFSET 0.0246 -0.0008 -0.0039
                      }
                    }
                  }
                }
                JOINT Joint28
                {
                  OFFSET 0.0860 -0.0168 -0.0403
                  CHANNELS 3 Zrotation Xrotation Yrotation
                  JOINT Joint29
                  {
                    OFFSET 0.0158 -0.0006 -0.0114
                    CHANNELS 3 Zrotation Xrotation Yrotation
                    JOINT Joint30
                    {
                      OFFSET 0.0161 -0.0011 -0.0109
                      CHANNELS 3 Zrotation Xrotation Yrotation
                      End Site
                      {
                        OFFSET 0.0161 -0.0011 -0.0109
                      }
                    }
                  }
                }
                JOINT Joint31
                {
                  OFFSET 0.0999 -0.0111 -0.0238
                  CHANNELS 3 Zrotation Xrotation Yrotation
                  JOINT Joint32
                  {
                    OFFSET 0.0286 0.0023 -0.0053
                    CHANNELS 3 Zrotation Xrotation Yrotation
                    JOINT Joint33
                    {
                      OFFSET 0.0234 -0.0009 -0.0074
                      CHANNELS 3 Zrotation Xrotation Yrotation
                      End Site
                      {
                        OFFSET 0.0234 -0.0009 -0.0074
                      }
                    }
                  }
                }
                JOINT Joint34
                {
                  OFFSET 0.0426 -0.0219 0.0277
                  CHANNELS 3 Zrotation Xrotation Yrotation
                  JOINT Joint35
                  {
                    OFFSET 0.0185 0.0008 0.0246
                    CHANNELS 3 Zrotation Xrotation Yrotation
                    JOINT Joint36
                    {
                      OFFSET 0.0221 -0.0048 0.0152
                      CHANNELS 3 Zrotation Xrotation Yrotation
                      End Site
                      {
                        OFFSET 0.0221 -0.0048 0.0152
                      }
                    }
                  }
                }
              }
            }
          }
        }
        JOINT Joint14
        {
          OFFSET -0.0815 0.1251 -0.0492
          CHANNELS 3 Zrotation Xrotation Yrotation
          JOINT Joint17
          {
            OFFSET -0.0975 0.0385 -0.0099
            CHANNELS 3 Zrotation Xrotation Yrotation
            JOINT Joint19
            {
              OFFSET -0.2546 -0.0159 -0.0229
              CHANNELS 3 Zrotation Xrotation Yrotation
              JOINT Joint21
              {
                OFFSET -0.2519 0.0079 0.0007
                CHANNELS 3 Zrotation Xrotation Yrotation
                JOINT Joint37
                {
                  OFFSET -0.1043 -0.0103 0.0246
                  CHANNELS 3 Zrotation Xrotation Yrotation
                  JOINT Joint38
                  {
                    OFFSET -0.0341 0.0034 0.0025
                    CHANNELS 3 Zrotation Xrotation Yrotation
                    JOINT Joint39
                    {
                      OFFSET -0.0236 -0.0015 -0.0003
                      CHANNELS 3 Zrotation Xrotation Yrotation
                      End Site
                      {
                        OFFSET -0.0236 -0.0015 -0.0003
                      }
                    }
                  }
                }
                JOINT Joint40
                {
                  OFFSET -0.1123 -0.0074 -0.0003
                  CHANNELS 3 Zrotation Xrotation Yrotation
                  JOINT Joint41
                  {
                    OFFSET -0.0322 0.0016 -0.0048
                    CHANNELS 3 Zrotation Xrotation Yrotation
                    JOINT Joint42
                    {
                      OFFSET -0.0245 -0.0012 -0.0045
                      CHANNELS 3 Zrotation Xrotation Yrotation
                      End Site
                      {
                        OFFSET -0.0245 -0.0012 -0.0045
                      }
                    }
                  }
                }
                JOINT Joint43
                {
                  OFFSET -0.0863 -0.0161 -0.0419
                  CHANNELS 3 Zrotation Xrotation Yrotation
                  JOINT Joint44
                  {
                    OFFSET -0.0162 -0.0001 -0.0120
                    CHANNELS 3 Zrotation Xrotation Yrotation
                    JOINT Joint45
                    {
                      OFFSET -0.0165 -0.0007 -0.0110
                      CHANNELS 3 Zrotation Xrotation Yrotation
                      End Site
                      {
                        OFFSET -0.0165 -0.0007 -0.0110
                      }
                    }
                  }
                }
                JOINT Joint46
                {
                  OFFSET -0.0999 -0.0107 -0.0248
                  CHANNELS 3 Zrotation Xrotation Yrotation
                  JOINT Joint47
                  {
                    OFFSET -0.0290 0.0016 -0.0050
                    CHANNELS 3 Zrotation Xrotation Yrotation
                    JOINT Joint48
                    {
                      OFFSET -0.0236 -0.0012 -0.0076
                      CHANNELS 3 Zrotation Xrotation Yrotation
                      End Site
                      {
                        OFFSET -0.0236 -0.0012 -0.0076
                      }
                    }
                  }
                }
                JOINT Joint49
                {
                  OFFSET -0.0397 -0.0214 0.0306
                  CHANNELS 3 Zrotation Xrotation Yrotation
                  JOINT Joint50
                  {
                    OFFSET -0.0191 0.0007 0.0247
                    CHANNELS 3 Zrotation Xrotation Yrotation
                    JOINT Joint51
                    {
                      OFFSET -0.0231 -0.0056 0.0141
                      CHANNELS 3 Zrotation Xrotation Yrotation
                      End Site
                      {
                        OFFSET -0.0231 -0.0056 0.0141
                      }
                    }
                  }
                }
              }
            }
          }
        }
      }
    }
  }
}
MOTION
Frames: 7
Frame Time: 0.0333
0.0000 0.0000 0.0000 -68.7529 42.0442 -6.7315 25.9777 -35.7784 -20.6937 -56.1744 68.2962 51.3670 12.6647 -22.1023 -3.3143 -0.2673 -0.1173 0.4501 -40.7064 -12.2148 -19.0983 13.1958 60.6155 -30.7537 7.0043 -17.3514 19.3731 0.4101 -0.6394 -0.1052 20.3479 64.2200 -17.5529 23.4543 -5.7935 3.2989 -18.1028 -16.1951 31.2915 -4.1883 -1.6562 9.0645 12.7636 27.0534 -25.6643 -52.3921 1.1076 -3.3149 -58.8543 -40.3327 -39.9253 -10.5982 -24.6667 2.7417 10.2304 38.5260 14.3277 -23.5627 5.4103 3.3182 -43.1143 7.3252 -0.9750 -11.5734 -4.7938 -5.7536 -30.3337 -7.2746 0.8938 -40.6908 -8.4897 0.1306 -19.8488 -0.3694 -5.1471 -40.4032 -20.7287 -19.1644 -30.0891 -11.0008 -6.8292 -5.4429 -21.3916 -4.3525 -36.6417 -5.8920 -6.7194 -36.9976 -15.1958 -8.5817 -22.6569 -8.4068 -9.4767 -16.4673 46.4344 24.1343 3.7160 -28.2020 2.1191 -17.9726 30.4359 8.1235 31.1838 36.6265 62.9290 24.6701 17.9141 10.9866 -36.5294 2.0696 23.0260 -11.1356 21.5478 -8.5043 24.6922 5.4870 -4.1571 42.9203 7.3701 0.7045 11.1522 -5.4079 5.8221 30.0272 -6.9727 -0.8099 40.4252 -8.4064 -0.0637 19.9543 -0.0485 5.6874 39.6815 -20.4619 19.4435 29.9491 -10.9996 6.6504 5.7448 -21.2621 4.3934 36.4212 -6.3304 7.2599 38.4134 -15.0270 8.4081 21.8476 -8.7114 8.9373 15.8748 46.9675 -23.4125 -4.2336 -28.6241 -2.2037 18.2451 29.4528 -7.7521
0.0000 0.0000 0.0000 -68.5970 42.0394 -6.8812 25.8759 -35.8791 -20.5168 -56.8934 68.0200 52.6419 12.6798 -21.9858 -3.1555 -0.2144 -0.1243 0.3777 -40.5288 -12.3779 -19.3523 13.3276 60.5742 -30.8299 6.7337 -17.1890 18.8736 0.4175 -0.6168 -0.1501 20.9141 64.2619 -18.1671 23.3327 -5.5836 3.4269 -18.3544 -16.3548 31.6019 -4.1785 -1.5584 9.0443 12.4063 26.8970 -25.3169 -52.5811 1.2447 -3.2154 -58.7065 -40.4374 -39.9153 -10.7587 -24.9355 2.7449 10.1479 38.5152 14.3522 -23.6259 5.3349 3.3456 -43.0459 7.3129 -1.0095 -11.6479 -4.7869 -5.7651 -30.3217 -7.3248 0.9762 -40.6728 -8.5140 0.1972 -19.7681 -0.3277 -5.0781 -40.4359 -20.7090 -19.2163 -30.0568 -10.9834 -6.9177 -5.4495 -21.3759 -4.4737 -36.5796 -5.9065 -6.6889 -37.0857 -15.1653 -8.7748 -22.5262 -8.3245 -9.4940 -16.4332 46.5611 24.1355 3.7627 -28.1037 2.0456 -18.1879 30.3940 8.2593 31.1976 36.5600 62.9027 24.3658 17.8365 11.0512 -36.4175 2.0033 23.1754 -11.0037 21.3169 -8.4723 24.7211 5.4218 -4.2327 42.9925 7.3173 0.6428 11.0466 -5.3631 5.7162 29.9490 -6.9488 -0.9086 40.3462 -8.4456 -0.1279 19.8880 -0.1264 5.6770 39.7075 -20.4721 19.4970 29.9166 -10.9865 6.6026 5.6901 -21.1977 4.2643 36.3208 -6.3230 7.2584 38.2973 -15.0077 8.3147 21.7480 -8.7666 8.9583 15.7414 47.0430 -23.3725 -4.1487 -28.6088 -2.0569 18.2755 29.4093 -7.8611
0.0000 0.0000 0.0000 -68.3616 41.9369 -7.2101 25.7562 -35.9261 -20.5428 -57.6396 67.7338 54.2403 12.8679 -22.0944 -3.1561 -0.2783 -0.1855 0.3572 -40.4251 -12.5594 -19.0474 13.3384 60.6427 -30.9842 6.6370 -17.3359 19.1209 0.4185 -0.6049 -0.1693 21.7476 64.4110 -19.0428 23.3607 -5.4838 3.5595 -18.6354 -16.8003 32.1404 -4.3183 -1.3258 9.1502 12.3815 27.0437 -25.5065 -52.8158 1.2703 -3.2411 -58.6134 -40.4984 -40.0784 -10.9042 -25.1822 2.8927 10.0194 38.6218 14.5571 -23.6342 5.3450 3.3790 -43.0019 7.2929 -1.0368 -11.6439 -4.8276 -5.7377 -30.2946 -7.3203 1.0752 -40.6834 -8.5566 0.1495 -19.7040 -0.2794 -5.0571 -40.4318 -20.7075 -19.2265 -30.1324 -10.9623 -6.9831 -5.4640 -21.2515 -4.5522 -36.5625 -5.9401 -6.6358 -37.2239 -15.1277 -8.8707 -22.4516 -8.2835 -9.5209 -16.4131 46.4980 24.1677 3.7401 -27.9794 1.9487 -18.2040 30.3782 8.2844 31.0351 36.6770 63.1910 24.1661 17.9868 11.2750 -36.7981 2.2169 23.2588 -10.7789 21.0953 -8.6836 24.6602 5.4534 -4.2646 43.0574 7.3055 0.6793 11.0100 -5.3285 5.6639 30.0548 -6.8975 -0.9934 40.3055 -8.4689 -0.0993 19.9141 -0.1482 5.6843 39.7130 -20.5199 19.5388 29.9056 -11.0000 6.5321 5.7041 -21.1677 4.3163 36.3322 -6.2494 7.3054 38.2727 -14.9847 8.3224 21.7051 -8.7675 8.9957 15.7046 46.9780 -23.3443 -4.0433 -28.6162 -1.9900 18.3171 29.3513 -7.9789
0.0000 0.0000 0.0000 -68.1649 41.8181 -7.6040 25.6841 -36.0111 -20.6847 -58.1546 67.4478 55.7536 13.0515 -22.2952 -3.2343 -0.3870 -0.2531 0.3539 -40.8534 -12.8365 -18.6623 13.1209 60.8324 -31.0004 6.6225 -17.6318 19.6435 0.3892 -0.6102 -0.1642 22.4219 64.5579 -19.6012 23.5385 -5.4225 3.6556 -18.8261 -17.2573 32.6694 -4.5344 -1.1559 9.3030 12.5666 27.3274 -26.0259 -52.9959 1.2056 -3.3355 -58.6070 -40.5740 -40.2901 -10.9167 -25.3450 3.0360 9.8555 38.6750 14.8220 -23.6239 5.4147 3.4051 -43.0175 7.2783 -1.0344 -11.6204 -4.8866 -5.7053 -30.2598 -7.2683 1.1432 -40.6751 -8.6090 0.1006 -19.7189 -0.2677 -5.0043 -40.4013 -20.7154 -19.1974 -30.2132 -10.9705 -7.0048 -5.4702 -21.0849 -4.5302 -36.5753 -6.0044 -6.5842 -37.3029 -15.1077 -8.8889 -22.5026 -8.3103 -9.5389 -16.4269 46.3669 24.2038 3.7182 -27.8726 1.9110 -18.0755 30.4080 8.2270 30.7642 36.8310 63.6456 24.0505 18.4630 11.4531 -37.4695 2.5751 23.2362 -10.6042 20.9445 -8.9857 24.5465 5.5340 -4.2587 43.1538 7.3001 0.7683 11.0273 -5.3408 5.6630 30.2195 -6.8932 -1.0068 40.2197 -8.4694 -0.1355 19.9354 -0.1034 5.7047 39.7209 -20.5291 19.5866 29.9185 -10.9898 6.5155 5.7180 -21.1893 4.4476 36.4000 -6.1913 7.3120 38.3275 -15.0079 8.4167 21.7264 -8.7598 9.0599 15.7453 46.9135 -23.3918 -4.0015 -28.5930 -1.9984 18.3885 29.2991 -8.0091
0.0000 0.0000 0.0000 -68.0955 41.7985 -7.9722 25.6377 -36.1360 -20.7890 -58.5674 67.1924 57.0964 13.1338 -22.4383 -3.2867 -0.4476 -0.2850 0.3407 -41.5673 -13.1750 -18.4961 12.7414 61.0113 -30.7483 6.5880 -17.8219 19.9186 0.3405 -0.6089 -0.1650 22.9322 64.6399 -19.8139 23.7783 -5.3079 3.7351 -18.9332 -17.5598 33.0354 -4.7166 -1.1408 9.3764 12.6680 27.4200 -26.3578 -53.0191 1.1993 -3.4702 -58.6402 -40.6228 -40.3728 -10.8513 -25.4951 3.1014 9.5974 38.6036 15.0682 -23.6327 5.4670 3.3479 -43.0280 7.2900 -1.0278 -11.6116 -4.9216 -5.6641 -30.2894 -7.2275 1.1632 -40.6394 -8.6529 0.0712 -19.7279 -0.3362 -4.9775 -40.3887 -20.7130 -19.1453 -30.2233 -10.9861 -6.9745 -5.4248 -21.0045 -4.4856 -36.5773 -6.0755 -6.5592 -37.3298 -15.0741 -8.8858 -22.6646 -8.3454 -9.5950 -16.5191 46.3034 24.2844 3.6875 -27.9296 1.9363 -17.9168 30.5406 8.1842 30.4855 36.8214 64.0810 23.8942 19.0005 11.4582 -37.9541 2.8670 23.2892 -10.5816 20.7559 -9.1593 24.4585 5.5660 -4.2612 43.1734 7.2763 0.8211 11.0513 -5.3627 5.6604 30.3074 -6.9657 -0.9717 40.1833 -8.5133 -0.1859 19.9395 -0.0689 5.7163 39.7237 -20.5181 19.6298 29.9312 -10.9334 6.5322 5.6975 -21.1838 4.5141 36.4438 -6.2499 7.2600 38.3661 -15.0369 8.4775 21.7360 -8.7247 9.0659 15.8750 46.8591 -23.5586 -4.0188 -28.5471 -2.0284 18.3784 29.3187 -7.9900
0.0000 0.0000 0.0000 -68.1363 41.8595 -8.2716 25.5094 -36.1664 -20.8402 -59.1296 66.9328 58.3705 13.1320 -22.4628 -3.2673 -0.4474 -0.2832 0.3390 -42.1000 -13.5744 -18.5412 12.4394 61.1683 -30.4635 6.5266 -17.8292 19.8034 0.3258 -0.6298 -0.2088 23.4096 64.6162 -19.9370 24.0231 -5.0902 3.8424 -19.0185 -17.7316 33.2931 -4.8547 -1.2211 9.3607 12.6283 27.2627 -26.3915 -52.8841 1.2156 -3.5879 -58.7393 -40.6250 -40.3080 -10.7903 -25.7158 3.0094 9.2233 38.3569 15.2820 -23.6293 5.4729 3.2997 -43.0603 7.3278 -1.0352 -11.6015 -4.9363 -5.6556 -30.3250 -7.1976 1.1774 -40.5926 -8.6936 0.0568 -19.6993 -0.3457 -4.9990 -40.3786 -20.7068 -19.0984 -30.1684 -10.9981 -6.9430 -5.4149 -20.9969 -4.4480 -36.5880 -6.1019 -6.5514 -37.3224 -15.0576 -8.8939 -22.7565 -8.3795 -9.5873 -16.5824 46.3630 24.3615 3.6815 -28.0006 2.0089 -17.8702 30.6531 8.1713 30.3039 36.7377 64.4070 23.6582 19.3776 11.3988 -38.0963 3.0103 23.4462 -10.6257 20.5334 -9.1963 24.4572 5.5431 -4.2651 43.1588 7.2388 0.8100 11.0161 -5.3827 5.6489 30.2697 -7.0210 -0.9380 40.2276 -8.5593 -0.2166 19.9232 -0.0492 5.7169 39.7319 -20.5243 19.6760 29.9218 -10.8754 6.5252 5.6721 -21.1500 4.4970 36.4315 -6.4007 7.1931 38.3450 -15.0493 8.4682 21.7518 -8.7158 9.0394 15.9453 46.8405 -23.6871 -4.0725 -28.5160 -2.0716 18.3078 29.3997 -7.9545
0.0000 0.0000 0.0000 -68.2067 41.8777 -8.4791 25.3606 -36.1106 -20.8471 -59.8244 66.6646 59.5958 13.1172 -22.4400 -3.2056 -0.4327 -0.2803 0.3544 -42.1542 -13.9609 -18.7081 12.3594 61.3503 -30.4056 6.4434 -17.7102 19.4117 0.3184 -0.6268 -0.2104 23.8195 64.4700 -20.0823 24.3098 -4.8168 3.9750 -19.1558 -17.9042 33.5600 -4.9634 -1.2893 9.3189 12.5027 27.0301 -26.3001 -52.7728 1.2988 -3.5966 -58.8927 -40.6366 -40.1496 -10.7811 -26.0213 2.7323 8.8577 38.1371 15.4799 -23.6512 5.4342 3.2947 -43.0650 7.3632 -1.0524 -11.5722 -4.9504 -5.6422 -30.3370 -7.1885 1.1832 -40.5931 -8.7076 0.0518 -19.6318 -0.2687 -5.0152 -40.3942 -20.7049 -19.0747 -30.1191 -10.9950 -6.9454 -5.4238 -21.0193 -4.4410 -36.5738 -6.1258 -6.5877 -37.2899 -15.0784 -8.8956 -22.7492 -8.3753 -9.5945 -16.6296 46.4601 24.3921 3.7285 -28.0252 2.0490 -17.9333 30.7540 8.1929 30.2361 36.7560 64.6598 23.3713 19.6458 11.4543 -38.0283 3.1011 23.6480 -10.5988 20.3989 -9.2227 24.5266 5.5138 -4.2740 43.1429 7.1926 0.7678 10.9565 -5.3760 5.6347 30.1957 -7.0591 -0.9123 40.3024 -8.5694 -0.2452 19.9203 -0.0591 5.7238 39.7348 -20.5570 19.6952 29.9262 -10.8898 6.5515 5.6295 -21.1340 4.3962 36.4095 -6.4518 7.1876 38.2867 -15.0513 8.4144 21.7957 -8.7783 9.0068 15.9369 46.7965 -23.6987 -4.0997 -28.5041 -2.0971 18.2213 29.4569 -7.8917
